<?xml version="1.0" encoding="UTF-8" standalone="no"?>
<!-- Created with Inkscape (http://www.inkscape.org/) -->

<svg
   width="1000"
   height="1000"
   viewBox="0 0 1000 1000"
   version="1.1"
   id="svg1"
   inkscape:version="1.4 (e7c3feb1, 2024-10-09)"
   sodipodi:docname="dash_options.svg"
   xmlns:inkscape="http://www.inkscape.org/namespaces/inkscape"
   xmlns:sodipodi="http://sodipodi.sourceforge.net/DTD/sodipodi-0.dtd"
   xmlns="http://www.w3.org/2000/svg"
   xmlns:svg="http://www.w3.org/2000/svg">
  <sodipodi:namedview
     id="namedview1"
     pagecolor="#ffffff"
     bordercolor="#000000"
     borderopacity="0.25"
     inkscape:showpageshadow="true"
     inkscape:pageopacity="0.0"
     inkscape:pagecheckerboard="true"
     inkscape:deskcolor="#d1d1d1"
     inkscape:document-units="px"
     inkscape:clip-to-page="false"
     borderlayer="true"
     inkscape:zoom="0.91677352"
     inkscape:cx="532.30159"
     inkscape:cy="452.67451"
     inkscape:window-width="2304"
     inkscape:window-height="1243"
     inkscape:window-x="0"
     inkscape:window-y="25"
     inkscape:window-maximized="0"
     inkscape:current-layer="layer1" />
  <defs
     id="defs1" />
  <g
     inkscape:label="Layer 1"
     inkscape:groupmode="layer"
     id="layer1">
    <path
       style="fill:#0040ff;fill-opacity:1;stroke:#000000;stroke-width:24;stroke-linecap:square;stroke-linejoin:miter;stroke-dasharray:none;stroke-opacity:1"
       d="M 181.93586,145.3095 C 129.57833,16.140909 35.519165,19.652439 105.58113,235.84439 175.64309,452.03634 92.122149,493.39515 39.043437,349.28571"
       id="path19"
       sodipodi:nodetypes="czc" />
    <path
       style="fill:#0040ff;fill-opacity:1;stroke:#000000;stroke-width:24;stroke-linecap:square;stroke-linejoin:miter;stroke-dasharray:24, 72;stroke-opacity:1;stroke-dashoffset:0"
       d="M 569.7946,145.30948 C 517.43707,16.140909 423.3779,19.652439 493.43986,235.8444 563.50183,452.03635 479.98088,493.39516 426.90217,349.28572"
       id="path19-4"
       sodipodi:nodetypes="czc" />
    <path
       style="fill:#0040ff;fill-opacity:1;stroke:#000000;stroke-width:24;stroke-linecap:square;stroke-linejoin:miter;stroke-dasharray:24, 144;stroke-opacity:1;stroke-dashoffset:0"
       d="M 763.72397,145.3095 C 711.36644,16.140909 617.30727,19.652439 687.36923,235.84439 757.4312,452.03634 673.91025,493.39515 620.83154,349.28571"
       id="path19-01"
       sodipodi:nodetypes="czc" />
    <path
       style="fill:#0040ff;fill-opacity:1;stroke:#000000;stroke-width:24;stroke-linecap:square;stroke-linejoin:miter;stroke-dasharray:24, 1152;stroke-opacity:1;stroke-dashoffset:0"
       d="M 957.65337,145.30948 C 905.29581,16.140909 811.23671,19.652439 881.29861,235.8444 c 70.06196,216.19195 -13.4589,257.55076 -66.5377,113.44132"
       id="path19-15"
       sodipodi:nodetypes="czc" />
    <path
       style="fill:#0040ff;fill-opacity:1;stroke:#000000;stroke-width:24;stroke-linecap:square;stroke-linejoin:miter;stroke-dasharray:24, 24;stroke-opacity:1;stroke-dashoffset:0"
       d="M 375.86523,145.30948 C 323.5077,16.140909 229.44853,19.652439 299.51049,235.8444 369.57246,452.03635 286.05151,493.39516 232.9728,349.28572"
       id="path19-9"
       sodipodi:nodetypes="czc" />
    <path
       style="fill:#0040ff;fill-opacity:1;stroke:#000000;stroke-width:24;stroke-linecap:square;stroke-linejoin:miter;stroke-dasharray:96, 96;stroke-opacity:1;stroke-dashoffset:0"
       d="M 181.93586,644.46309 C 129.57834,515.29452 35.519165,518.80605 105.58113,734.998 175.64309,951.18995 92.122149,992.54876 39.043437,848.43932"
       id="path19-49"
       sodipodi:nodetypes="czc" />
    <path
       style="fill:#0040ff;fill-opacity:1;stroke:#000000;stroke-width:24;stroke-linecap:square;stroke-linejoin:miter;stroke-dasharray:192, 48, 24, 48;stroke-opacity:1;stroke-dashoffset:0"
       d="M 375.86523,644.46309 C 323.5077,515.29452 229.44853,518.80605 299.51049,734.998 369.57246,951.18995 286.05151,992.54876 232.9728,848.43932"
       id="path19-0"
       sodipodi:nodetypes="czc" />
    <path
       style="fill:#0040ff;fill-opacity:1;stroke:#000000;stroke-width:24;stroke-linecap:square;stroke-linejoin:miter;stroke-dasharray:576, 24;stroke-opacity:1;stroke-dashoffset:0"
       d="M 569.7946,644.46309 C 517.43707,515.29452 423.3779,518.80605 493.43986,734.998 563.50183,951.18995 479.98088,992.54876 426.90217,848.43932"
       id="path19-1"
       sodipodi:nodetypes="czc" />
    <path
       style="fill:#0040ff;fill-opacity:1;stroke:#000000;stroke-width:24;stroke-linecap:square;stroke-linejoin:miter;stroke-dasharray:192, 192;stroke-opacity:1;stroke-dashoffset:0"
       d="M 763.72397,644.46309 C 711.36644,515.29452 617.30727,518.80605 687.36923,734.998 757.4312,951.18995 673.91025,992.54876 620.83154,848.43932"
       id="path19-2"
       sodipodi:nodetypes="czc" />
    <path
       style="fill:#0040ff;fill-opacity:1;stroke:#000000;stroke-width:24;stroke-linecap:square;stroke-linejoin:miter;stroke-dasharray:0, 264;stroke-opacity:1;stroke-dashoffset:0"
       d="M 957.65337,644.46309 C 905.29581,515.29452 811.23671,518.80605 881.29861,734.998 c 70.06196,216.19195 -13.4589,257.55076 -66.5377,113.44132"
       id="path19-28"
       sodipodi:nodetypes="czc" />
  </g>
</svg>
