<?xml version="1.0" encoding="UTF-8" standalone="no"?>
<!-- Created with Inkscape (http://www.inkscape.org/) -->

<svg
   width="1000"
   height="1000"
   viewBox="0 0 1000 1000"
   version="1.1"
   id="svg1"
   inkscape:version="1.4 (e7c3feb1, 2024-10-09)"
   sodipodi:docname="clip_art.svg"
   xmlns:inkscape="http://www.inkscape.org/namespaces/inkscape"
   xmlns:sodipodi="http://sodipodi.sourceforge.net/DTD/sodipodi-0.dtd"
   xmlns:xlink="http://www.w3.org/1999/xlink"
   xmlns="http://www.w3.org/2000/svg"
   xmlns:svg="http://www.w3.org/2000/svg">
  <sodipodi:namedview
     id="namedview1"
     pagecolor="#ffffff"
     bordercolor="#000000"
     borderopacity="0.25"
     inkscape:showpageshadow="true"
     inkscape:pageopacity="0.0"
     inkscape:pagecheckerboard="true"
     inkscape:deskcolor="#d1d1d1"
     inkscape:document-units="px"
     inkscape:clip-to-page="false"
     borderlayer="true"
     inkscape:zoom="0.71490727"
     inkscape:cx="439.2178"
     inkscape:cy="450.40806"
     inkscape:window-width="2304"
     inkscape:window-height="1243"
     inkscape:window-x="0"
     inkscape:window-y="25"
     inkscape:window-maximized="0"
     inkscape:current-layer="svg1"
     showguides="false" />
  <defs
     id="defs1">
    <linearGradient
       id="linearGradient13"
       inkscape:collect="always">
      <stop
         style="stop-color:#00fff7;stop-opacity:1;"
         offset="0"
         id="stop13" />
      <stop
         style="stop-color:#000eff;stop-opacity:1;"
         offset="1"
         id="stop14" />
    </linearGradient>
    <inkscape:path-effect
       effect="powerclip"
       message=""
       id="path-effect22"
       is_visible="true"
       lpeversion="1"
       inverse="true"
       flatten="false"
       hide_clip="false" />
    <inkscape:path-effect
       effect="powermask"
       id="path-effect16"
       is_visible="true"
       lpeversion="1"
       uri="#mask-powermask-path-effect16"
       invert="false"
       hide_mask="false"
       background="true"
       background_color="#ffffffff" />
    <inkscape:path-effect
       effect="powermask"
       id="path-effect15"
       is_visible="true"
       lpeversion="1"
       uri="#mask-powermask-path-effect15"
       invert="false"
       hide_mask="false"
       background="true"
       background_color="#ffffffff" />
    <inkscape:path-effect
       effect="powermask"
       id="path-effect14"
       is_visible="true"
       lpeversion="1"
       uri="#mask-powermask-path-effect14"
       invert="false"
       hide_mask="false"
       background="true"
       background_color="#ffffffff" />
    <inkscape:path-effect
       effect="powermask"
       id="path-effect13"
       is_visible="true"
       lpeversion="1"
       uri="#mask-powermask-path-effect13"
       invert="false"
       hide_mask="false"
       background="true"
       background_color="#ffffffff" />
    <inkscape:path-effect
       effect="powerclip"
       message=""
       id="path-effect8"
       is_visible="true"
       lpeversion="1"
       inverse="true"
       flatten="false"
       hide_clip="false" />
    <inkscape:path-effect
       effect="powerclip"
       message=""
       id="path-effect7"
       is_visible="true"
       lpeversion="1"
       inverse="true"
       flatten="false"
       hide_clip="false" />
    <inkscape:path-effect
       effect="powerclip"
       message=""
       id="path-effect6"
       is_visible="true"
       lpeversion="1"
       inverse="true"
       flatten="false"
       hide_clip="false" />
    <inkscape:path-effect
       effect="powerclip"
       message=""
       id="path-effect5"
       is_visible="true"
       lpeversion="1"
       inverse="true"
       flatten="false"
       hide_clip="false" />
    <inkscape:path-effect
       effect="powermask"
       id="path-effect54"
       is_visible="true"
       lpeversion="1"
       uri="#mask-powermask-path-effect54"
       invert="false"
       hide_mask="false"
       background="true"
       background_color="#ffffffff" />
    <inkscape:path-effect
       effect="powermask"
       id="path-effect53"
       is_visible="true"
       lpeversion="1"
       uri="#mask-powermask-path-effect53"
       invert="false"
       hide_mask="false"
       background="true"
       background_color="#ffffffff" />
    <inkscape:path-effect
       effect="powermask"
       id="path-effect52"
       is_visible="true"
       lpeversion="1"
       uri="#mask-powermask-path-effect52"
       invert="false"
       hide_mask="false"
       background="true"
       background_color="#ffffffff" />
    <inkscape:path-effect
       effect="powermask"
       id="path-effect51"
       is_visible="true"
       lpeversion="1"
       uri="#mask-powermask-path-effect51"
       invert="false"
       hide_mask="false"
       background="true"
       background_color="#ffffffff" />
    <inkscape:path-effect
       effect="powermask"
       id="path-effect50"
       is_visible="true"
       lpeversion="1"
       uri="#mask-powermask-path-effect50"
       invert="false"
       hide_mask="false"
       background="true"
       background_color="#ffffffff" />
    <inkscape:path-effect
       effect="powermask"
       id="path-effect49"
       is_visible="true"
       lpeversion="1"
       uri="#mask-powermask-path-effect49"
       invert="false"
       hide_mask="false"
       background="true"
       background_color="#ffffffff" />
    <inkscape:path-effect
       effect="powerclip"
       message=""
       id="path-effect42"
       is_visible="true"
       lpeversion="1"
       inverse="true"
       flatten="false"
       hide_clip="false" />
    <inkscape:path-effect
       effect="powerclip"
       message=""
       id="path-effect41"
       is_visible="true"
       lpeversion="1"
       inverse="true"
       flatten="false"
       hide_clip="false" />
    <inkscape:path-effect
       effect="powerclip"
       message=""
       id="path-effect40"
       is_visible="true"
       lpeversion="1"
       inverse="true"
       flatten="false"
       hide_clip="false" />
    <mask
       maskUnits="userSpaceOnUse"
       id="mask16">
      <path
         style="fill:#2aff00;fill-opacity:0;stroke:#c60062;stroke-width:24;stroke-linecap:square;stroke-miterlimit:10;stroke-opacity:1"
         d="M 563.78062,363.98468 619.1696,535.09705 650.82044,396.62461 416.40639,420.36274 529.16251,534.10796 485.64261,350.13744"
         id="path16" />
    </mask>
    <filter
       id="mask-powermask-path-effect22_inverse"
       inkscape:label="filtermask-powermask-path-effect22"
       style="color-interpolation-filters:sRGB"
       height="100"
       width="100"
       x="-50"
       y="-50">
      <feColorMatrix
         id="mask-powermask-path-effect22_primitive1"
         values="1"
         type="saturate"
         result="fbSourceGraphic" />
      <feColorMatrix
         id="mask-powermask-path-effect22_primitive2"
         values="-1 0 0 0 1 0 -1 0 0 1 0 0 -1 0 1 0 0 0 1 0 "
         in="fbSourceGraphic" />
    </filter>
    <clipPath
       clipPathUnits="userSpaceOnUse"
       id="clipPath37">
      <circle
         style="fill:#ff1b00;fill-opacity:1;stroke:none;stroke-width:24;stroke-linecap:square;stroke-miterlimit:10;stroke-opacity:1"
         id="circle37"
         cx="110.72005"
         cy="118.80634"
         r="50" />
    </clipPath>
    <clipPath
       clipPathUnits="userSpaceOnUse"
       id="clipPath38">
      <circle
         style="fill:#ff1b00;fill-opacity:0.362998;stroke:none;stroke-width:24;stroke-linecap:square;stroke-miterlimit:10;stroke-opacity:1"
         id="circle38"
         cx="287.39279"
         cy="120.63839"
         r="50" />
    </clipPath>
    <clipPath
       clipPathUnits="userSpaceOnUse"
       id="clipPath39">
      <circle
         style="fill:#ff1b00;fill-opacity:0;stroke:none;stroke-width:24;stroke-linecap:square;stroke-miterlimit:10;stroke-opacity:1"
         id="circle39"
         cx="476.51025"
         cy="118.77914"
         r="50" />
    </clipPath>
    <clipPath
       clipPathUnits="userSpaceOnUse"
       id="clipPath40">
      <circle
         style="display:none;fill:#ff1b00;fill-opacity:1;stroke:none;stroke-width:24;stroke-linecap:square;stroke-miterlimit:10;stroke-opacity:1"
         id="circle40"
         cx="112.2613"
         cy="280.81842"
         r="50" />
    </clipPath>
    <clipPath
       clipPathUnits="userSpaceOnUse"
       id="clipPath41">
      <circle
         style="display:none;fill:#ff1b00;fill-opacity:0.362998;stroke:none;stroke-width:24;stroke-linecap:square;stroke-miterlimit:10;stroke-opacity:1"
         id="circle41"
         cx="288.93405"
         cy="282.65048"
         r="50" />
    </clipPath>
    <clipPath
       clipPathUnits="userSpaceOnUse"
       id="clipPath42">
      <circle
         style="display:none;fill:#ff1b00;fill-opacity:0;stroke:none;stroke-width:24;stroke-linecap:square;stroke-miterlimit:10;stroke-opacity:1"
         id="circle42"
         cx="478.05145"
         cy="280.79123"
         r="50" />
    </clipPath>
    <mask
       maskUnits="userSpaceOnUse"
       id="mask42">
      <circle
         style="fill:#ff1b00;fill-opacity:1;stroke:none;stroke-width:24;stroke-linecap:square;stroke-miterlimit:10;stroke-opacity:1"
         id="circle43"
         cx="116.10044"
         cy="447.75284"
         r="50" />
    </mask>
    <mask
       maskUnits="userSpaceOnUse"
       id="mask43">
      <circle
         style="fill:#ff1b00;fill-opacity:0.723653;stroke:none;stroke-width:24;stroke-linecap:square;stroke-miterlimit:10;stroke-opacity:1"
         id="circle44"
         cx="281.31476"
         cy="447.26477"
         r="50" />
    </mask>
    <mask
       maskUnits="userSpaceOnUse"
       id="mask44">
      <circle
         style="fill:#ff1b00;fill-opacity:0.526932;stroke:none;stroke-width:24;stroke-linecap:square;stroke-miterlimit:10;stroke-opacity:1"
         id="circle45"
         cx="441.85049"
         cy="448.116"
         r="50" />
    </mask>
    <mask
       maskUnits="userSpaceOnUse"
       id="mask45">
      <circle
         style="fill:#ff1b00;fill-opacity:0.362998;stroke:none;stroke-width:24;stroke-linecap:square;stroke-miterlimit:10;stroke-opacity:1"
         id="circle46"
         cx="599.77905"
         cy="448.70523"
         r="50" />
    </mask>
    <mask
       maskUnits="userSpaceOnUse"
       id="mask46">
      <circle
         style="fill:#ff1b00;fill-opacity:0.175644;stroke:none;stroke-width:24;stroke-linecap:square;stroke-miterlimit:10;stroke-opacity:1"
         id="circle47"
         cx="761.58856"
         cy="449.43735"
         r="50" />
    </mask>
    <mask
       maskUnits="userSpaceOnUse"
       id="mask47">
      <circle
         style="fill:#ff1b00;fill-opacity:0;stroke:none;stroke-width:24;stroke-linecap:square;stroke-miterlimit:10;stroke-opacity:1"
         id="circle48"
         cx="927.00519"
         cy="449.48499"
         r="50" />
    </mask>
    <mask
       maskUnits="userSpaceOnUse"
       id="mask-powermask-path-effect49" />
    <mask
       maskUnits="userSpaceOnUse"
       id="mask-powermask-path-effect50" />
    <mask
       maskUnits="userSpaceOnUse"
       id="mask-powermask-path-effect51" />
    <mask
       maskUnits="userSpaceOnUse"
       id="mask-powermask-path-effect52" />
    <mask
       maskUnits="userSpaceOnUse"
       id="mask-powermask-path-effect53" />
    <mask
       maskUnits="userSpaceOnUse"
       id="mask-powermask-path-effect54" />
    <filter
       id="mask-powermask-path-effect56_inverse"
       inkscape:label="filtermask-powermask-path-effect56"
       style="color-interpolation-filters:sRGB"
       height="100"
       width="100"
       x="-50"
       y="-50">
      <feColorMatrix
         id="mask-powermask-path-effect56_primitive1"
         values="1"
         type="saturate"
         result="fbSourceGraphic" />
      <feColorMatrix
         id="mask-powermask-path-effect56_primitive2"
         values="-1 0 0 0 1 0 -1 0 0 1 0 0 -1 0 1 0 0 0 1 0 "
         in="fbSourceGraphic" />
    </filter>
    <filter
       id="mask-powermask-path-effect58_inverse"
       inkscape:label="filtermask-powermask-path-effect58"
       style="color-interpolation-filters:sRGB"
       height="100"
       width="100"
       x="-50"
       y="-50">
      <feColorMatrix
         id="mask-powermask-path-effect58_primitive1"
         values="1"
         type="saturate"
         result="fbSourceGraphic" />
      <feColorMatrix
         id="mask-powermask-path-effect58_primitive2"
         values="-1 0 0 0 1 0 -1 0 0 1 0 0 -1 0 1 0 0 0 1 0 "
         in="fbSourceGraphic" />
    </filter>
    <clipPath
       clipPathUnits="userSpaceOnUse"
       id="clipPath1">
      <circle
         style="fill:#00ff4d;fill-opacity:1;stroke:none;stroke-width:24;stroke-linecap:square;stroke-miterlimit:10"
         id="circle1"
         cx="195.57179"
         cy="301.81744"
         r="75" />
    </clipPath>
    <clipPath
       clipPathUnits="userSpaceOnUse"
       id="clipPath2">
      <circle
         style="fill:#00ff4d;fill-opacity:0.693182;stroke:none;stroke-width:24;stroke-linecap:square;stroke-miterlimit:10"
         id="circle2"
         cx="426.10046"
         cy="301.81744"
         r="75" />
    </clipPath>
    <clipPath
       clipPathUnits="userSpaceOnUse"
       id="clipPath3">
      <circle
         style="fill:#00ff4d;fill-opacity:0.265909;stroke:none;stroke-width:24;stroke-linecap:square;stroke-miterlimit:10"
         id="circle3"
         cx="656.62909"
         cy="301.81744"
         r="75" />
    </clipPath>
    <clipPath
       clipPathUnits="userSpaceOnUse"
       id="clipPath4">
      <circle
         style="fill:#00ff4d;fill-opacity:0;stroke:none;stroke-width:24;stroke-linecap:square;stroke-miterlimit:10"
         id="circle4"
         cx="887.15771"
         cy="301.81744"
         r="75" />
    </clipPath>
    <clipPath
       clipPathUnits="userSpaceOnUse"
       id="clipPath5">
      <circle
         style="display:none;fill:#00ff4d;fill-opacity:1;stroke:none;stroke-width:24;stroke-linecap:square;stroke-miterlimit:10"
         id="circle5"
         cx="194.10448"
         cy="485.19794"
         r="75" />
    </clipPath>
    <clipPath
       clipPathUnits="userSpaceOnUse"
       id="clipPath6">
      <circle
         style="display:none;fill:#00ff4d;fill-opacity:0.693182;stroke:none;stroke-width:24;stroke-linecap:square;stroke-miterlimit:10"
         id="circle6"
         cx="424.63315"
         cy="485.19794"
         r="75" />
    </clipPath>
    <clipPath
       clipPathUnits="userSpaceOnUse"
       id="clipPath7">
      <circle
         style="display:none;fill:#00ff4d;fill-opacity:0.265909;stroke:none;stroke-width:24;stroke-linecap:square;stroke-miterlimit:10"
         id="circle7"
         cx="655.16174"
         cy="485.19794"
         r="75" />
    </clipPath>
    <clipPath
       clipPathUnits="userSpaceOnUse"
       id="clipPath8">
      <circle
         style="display:none;fill:#00ff4d;fill-opacity:0;stroke:none;stroke-width:24;stroke-linecap:square;stroke-miterlimit:10"
         id="circle8"
         cx="885.69037"
         cy="485.19794"
         r="75" />
    </clipPath>
    <mask
       maskUnits="userSpaceOnUse"
       id="mask8">
      <circle
         style="fill:#00ff4d;fill-opacity:1;stroke:none;stroke-width:24;stroke-linecap:square;stroke-miterlimit:10"
         id="circle9"
         cx="193.52312"
         cy="669.64545"
         r="75" />
    </mask>
    <mask
       maskUnits="userSpaceOnUse"
       id="mask9">
      <circle
         style="fill:#00ff4d;fill-opacity:0.693182;stroke:none;stroke-width:24;stroke-linecap:square;stroke-miterlimit:10"
         id="circle10"
         cx="424.05179"
         cy="669.64545"
         r="75" />
    </mask>
    <mask
       maskUnits="userSpaceOnUse"
       id="mask10">
      <circle
         style="fill:#00ff4d;fill-opacity:0.265909;stroke:none;stroke-width:24;stroke-linecap:square;stroke-miterlimit:10"
         id="circle11"
         cx="654.58044"
         cy="669.64545"
         r="75" />
    </mask>
    <mask
       maskUnits="userSpaceOnUse"
       id="mask11">
      <circle
         style="fill:#00ff4d;fill-opacity:0;stroke:none;stroke-width:24;stroke-linecap:square;stroke-miterlimit:10"
         id="circle12"
         cx="885.10907"
         cy="669.64545"
         r="75" />
    </mask>
    <mask
       maskUnits="userSpaceOnUse"
       id="mask-powermask-path-effect13">
      <circle
         style="fill:#00ff4d;fill-opacity:1;stroke:none;stroke-width:24;stroke-linecap:square;stroke-miterlimit:10"
         id="circle13"
         cx="193.14868"
         cy="853.63324"
         r="75" />
    </mask>
    <mask
       maskUnits="userSpaceOnUse"
       id="mask-powermask-path-effect14">
      <circle
         style="fill:#00ff4d;fill-opacity:0.693182;stroke:none;stroke-width:24;stroke-linecap:square;stroke-miterlimit:10"
         id="circle14"
         cx="423.67734"
         cy="853.63324"
         r="75" />
    </mask>
    <mask
       maskUnits="userSpaceOnUse"
       id="mask-powermask-path-effect15">
      <circle
         style="fill:#00ff4d;fill-opacity:0.265909;stroke:none;stroke-width:24;stroke-linecap:square;stroke-miterlimit:10"
         id="circle15"
         cx="654.20599"
         cy="853.63324"
         r="75" />
    </mask>
    <mask
       maskUnits="userSpaceOnUse"
       id="mask-powermask-path-effect16">
      <circle
         style="fill:#00ff4d;fill-opacity:0;stroke:none;stroke-width:24;stroke-linecap:square;stroke-miterlimit:10"
         id="circle16"
         cx="884.73462"
         cy="853.63324"
         r="75" />
    </mask>
    <clipPath
       clipPathUnits="userSpaceOnUse"
       id="clipPath21">
      <path
         style="display:none;stroke-linecap:square;stroke-miterlimit:10"
         d="m 541.19727,240.20117 -5.72461,21.24219 c -5.95144,22.08681 -10.13538,43.68948 -12.56836,64.99219 -30.24954,8.92912 -60.5648,23.62675 -90.57227,44.66211 -18.55439,-11.80504 -39.63292,-22.82879 -64.25976,-33.26563 l -20.25586,-8.58398 -17.16993,40.51172 20.25586,8.58398 c 16.95073,7.18371 31.68931,14.30044 44.92774,21.55469 -20.38356,17.99246 -40.54632,38.96217 -60.35547,63.14453 l -23.87305,29.14453 37.11328,6.4707 c 68.18218,11.88887 104.81577,19.3421 178.35157,64.24414 l 57.31054,34.9961 -25.49218,-62.125 C 535.26448,478.21445 510.17279,434.4122 469.02148,398.36133 c 17.36394,-11.26069 34.5641,-19.90229 51.60743,-26.12696 1.11145,65.80386 21.84509,129.53004 68.45312,195.7461 l 99.89649,141.92187 -61.32618,-162.35937 c -18.30125,-48.45287 -16.42688,-73.00587 -6.91992,-98.16211 9.50696,-25.15625 30.26278,-52.20201 50.85352,-94.19531 l 11.80468,-24.07618 -25.91796,-6.875 c -29.21461,-7.74806 -59.10295,-10.02297 -89.25196,-6.83984 2.4015,-14.40406 5.60122,-29.1578 9.73633,-44.50391 l 5.72461,-21.24218 z m 55.14257,119.2168 c 7.38345,0.19651 14.72901,0.93926 22.05664,1.92383 -14.54256,25.32127 -29.06975,46.67837 -38.82226,72.48437 -1.5575,4.12128 -2.92313,8.34813 -4.11328,12.67383 -8.92499,-28.26855 -12.6294,-56.21883 -11.76563,-85.23047 10.94268,-1.51469 21.82573,-2.1395 32.64453,-1.85156 z m -162.45898,65.22461 c 24.64852,19.33187 41.90309,41.12438 57.11914,68.95898 -33.93914,-15.63957 -63.8049,-24.25793 -96.57227,-31.05078 13.24733,-14.23948 26.39724,-26.84665 39.45313,-37.9082 z"
         id="path22" />
      <path
         id="lpe_path-effect22"
         style="stroke-linecap:square;stroke-miterlimit:10"
         class="powerclip"
         d="m 115.24204,49.155234 h 788.6972 V 895.35138 h -788.6972 z m 425.95523,191.045936 -5.72461,21.24219 c -5.95144,22.08681 -10.13538,43.68948 -12.56836,64.99219 -30.24954,8.92912 -60.5648,23.62675 -90.57227,44.66211 -18.55439,-11.80504 -39.63292,-22.82879 -64.25976,-33.26563 l -20.25586,-8.58398 -17.16993,40.51172 20.25586,8.58398 c 16.95073,7.18371 31.68931,14.30044 44.92774,21.55469 -20.38356,17.99246 -40.54632,38.96217 -60.35547,63.14453 l -23.87305,29.14453 37.11328,6.4707 c 68.18218,11.88887 104.81577,19.3421 178.35157,64.24414 l 57.31054,34.9961 -25.49218,-62.125 C 535.26448,478.21445 510.17279,434.4122 469.02148,398.36133 c 17.36394,-11.26069 34.5641,-19.90229 51.60743,-26.12696 1.11145,65.80386 21.84509,129.53004 68.45312,195.7461 l 99.89649,141.92187 -61.32618,-162.35937 c -18.30125,-48.45287 -16.42688,-73.00587 -6.91992,-98.16211 9.50696,-25.15625 30.26278,-52.20201 50.85352,-94.19531 l 11.80468,-24.07618 -25.91796,-6.875 c -29.21461,-7.74806 -59.10295,-10.02297 -89.25196,-6.83984 2.4015,-14.40406 5.60122,-29.1578 9.73633,-44.50391 l 5.72461,-21.24218 z m 55.14257,119.2168 c -10.8188,-0.28794 -21.70185,0.33687 -32.64453,1.85156 -0.86377,29.01164 2.84064,56.96192 11.76563,85.23047 1.19015,-4.3257 2.55578,-8.55255 4.11328,-12.67383 9.75251,-25.806 24.2797,-47.1631 38.82226,-72.48437 -7.32763,-0.98457 -14.67319,-1.72732 -22.05664,-1.92383 z m -162.45898,65.22461 c -13.05589,11.06155 -26.2058,23.66872 -39.45313,37.9082 32.76737,6.79285 62.63313,15.41121 96.57227,31.05078 -15.21605,-27.8346 -32.47062,-49.62711 -57.11914,-68.95898 z" />
    </clipPath>
    <filter
       id="mask-powermask-path-effect12_inverse"
       inkscape:label="filtermask-powermask-path-effect12"
       style="color-interpolation-filters:sRGB"
       height="100"
       width="100"
       x="-50"
       y="-50">
      <feColorMatrix
         id="mask-powermask-path-effect12_primitive1"
         values="1"
         type="saturate"
         result="fbSourceGraphic" />
      <feColorMatrix
         id="mask-powermask-path-effect12_primitive2"
         values="-1 0 0 0 1 0 -1 0 0 1 0 0 -1 0 1 0 0 0 1 0 "
         in="fbSourceGraphic" />
    </filter>
    <clipPath
       clipPathUnits="userSpaceOnUse"
       id="clipPath21-3">
      <path
         style="display:none;stroke-linecap:square;stroke-miterlimit:10"
         d="m 541.19727,240.20117 -5.72461,21.24219 c -5.95144,22.08681 -10.13538,43.68948 -12.56836,64.99219 -30.24954,8.92912 -60.5648,23.62675 -90.57227,44.66211 -18.55439,-11.80504 -39.63292,-22.82879 -64.25976,-33.26563 l -20.25586,-8.58398 -17.16993,40.51172 20.25586,8.58398 c 16.95073,7.18371 31.68931,14.30044 44.92774,21.55469 -20.38356,17.99246 -40.54632,38.96217 -60.35547,63.14453 l -23.87305,29.14453 37.11328,6.4707 c 68.18218,11.88887 104.81577,19.3421 178.35157,64.24414 l 57.31054,34.9961 -25.49218,-62.125 C 535.26448,478.21445 510.17279,434.4122 469.02148,398.36133 c 17.36394,-11.26069 34.5641,-19.90229 51.60743,-26.12696 1.11145,65.80386 21.84509,129.53004 68.45312,195.7461 l 99.89649,141.92187 -61.32618,-162.35937 c -18.30125,-48.45287 -16.42688,-73.00587 -6.91992,-98.16211 9.50696,-25.15625 30.26278,-52.20201 50.85352,-94.19531 l 11.80468,-24.07618 -25.91796,-6.875 c -29.21461,-7.74806 -59.10295,-10.02297 -89.25196,-6.83984 2.4015,-14.40406 5.60122,-29.1578 9.73633,-44.50391 l 5.72461,-21.24218 z m 55.14257,119.2168 c 7.38345,0.19651 14.72901,0.93926 22.05664,1.92383 -14.54256,25.32127 -29.06975,46.67837 -38.82226,72.48437 -1.5575,4.12128 -2.92313,8.34813 -4.11328,12.67383 -8.92499,-28.26855 -12.6294,-56.21883 -11.76563,-85.23047 10.94268,-1.51469 21.82573,-2.1395 32.64453,-1.85156 z m -162.45898,65.22461 c 24.64852,19.33187 41.90309,41.12438 57.11914,68.95898 -33.93914,-15.63957 -63.8049,-24.25793 -96.57227,-31.05078 13.24733,-14.23948 26.39724,-26.84665 39.45313,-37.9082 z"
         id="path22-8" />
      <path
         id="lpe_path-effect22-0"
         style="stroke-linecap:square;stroke-miterlimit:10"
         class="powerclip"
         d="m 115.24204,49.155234 h 788.6972 V 895.35138 h -788.6972 z m 425.95523,191.045936 -5.72461,21.24219 c -5.95144,22.08681 -10.13538,43.68948 -12.56836,64.99219 -30.24954,8.92912 -60.5648,23.62675 -90.57227,44.66211 -18.55439,-11.80504 -39.63292,-22.82879 -64.25976,-33.26563 l -20.25586,-8.58398 -17.16993,40.51172 20.25586,8.58398 c 16.95073,7.18371 31.68931,14.30044 44.92774,21.55469 -20.38356,17.99246 -40.54632,38.96217 -60.35547,63.14453 l -23.87305,29.14453 37.11328,6.4707 c 68.18218,11.88887 104.81577,19.3421 178.35157,64.24414 l 57.31054,34.9961 -25.49218,-62.125 C 535.26448,478.21445 510.17279,434.4122 469.02148,398.36133 c 17.36394,-11.26069 34.5641,-19.90229 51.60743,-26.12696 1.11145,65.80386 21.84509,129.53004 68.45312,195.7461 l 99.89649,141.92187 -61.32618,-162.35937 c -18.30125,-48.45287 -16.42688,-73.00587 -6.91992,-98.16211 9.50696,-25.15625 30.26278,-52.20201 50.85352,-94.19531 l 11.80468,-24.07618 -25.91796,-6.875 c -29.21461,-7.74806 -59.10295,-10.02297 -89.25196,-6.83984 2.4015,-14.40406 5.60122,-29.1578 9.73633,-44.50391 l 5.72461,-21.24218 z m 55.14257,119.2168 c -10.8188,-0.28794 -21.70185,0.33687 -32.64453,1.85156 -0.86377,29.01164 2.84064,56.96192 11.76563,85.23047 1.19015,-4.3257 2.55578,-8.55255 4.11328,-12.67383 9.75251,-25.806 24.2797,-47.1631 38.82226,-72.48437 -7.32763,-0.98457 -14.67319,-1.72732 -22.05664,-1.92383 z m -162.45898,65.22461 c -13.05589,11.06155 -26.2058,23.66872 -39.45313,37.9082 32.76737,6.79285 62.63313,15.41121 96.57227,31.05078 -15.21605,-27.8346 -32.47062,-49.62711 -57.11914,-68.95898 z" />
    </clipPath>
    <inkscape:path-effect
       effect="powerclip"
       message=""
       id="path-effect22-2"
       is_visible="true"
       lpeversion="1"
       inverse="true"
       flatten="false"
       hide_clip="false" />
    <clipPath
       clipPathUnits="userSpaceOnUse"
       id="clipPath13">
      <path
         style="fill:#ff007b;fill-opacity:1;stroke:#000000;stroke-width:44;stroke-linecap:square;stroke-miterlimit:10;stroke-dasharray:none;stroke-opacity:1"
         d="M 157.62856,210.46744 C 141.34072,380.22634 117.32039,558.20261 154.831,728.01708 242.48805,716.38654 330.14511,798.76309 417.80216,852.50875 403.46248,770.06712 370.39298,692.51177 333.8752,617.51324 466.75957,694.13815 599.64393,755.81289 732.5283,888.8771 804.79042,745.38322 846.93699,611.14584 864.01388,462.24835 L 717.14169,567.15706 809.46135,175.49787 C 635.16797,116.38352 463.91067,108.88252 293.31049,112.55265 L 652.79768,238.4431 279.32267,260.82362 247.15066,526.59236 C 225.13968,413.38766 190.31338,312.99829 157.62856,210.46744 Z"
         id="path13"
         sodipodi:nodetypes="ccccccccccccc"
         clip-path="none" />
    </clipPath>
    <linearGradient
       inkscape:collect="always"
       xlink:href="#linearGradient13"
       id="linearGradient14"
       x1="527.96942"
       y1="396.81674"
       x2="668.18427"
       y2="679.37085"
       gradientUnits="userSpaceOnUse" />
  </defs>
  <rect
     style="fill:url(#linearGradient14);fill-opacity:1;stroke:none;stroke-width:44;stroke-linecap:square;stroke-miterlimit:10;stroke-dasharray:none;stroke-opacity:1"
     id="rect18"
     width="1130.2166"
     height="990.33826"
     x="-44.761047"
     y="-55.951309"
     clip-path="url(#clipPath13)" />
  <path
     style="fill:#ff0076;fill-opacity:1;stroke:#c50059;stroke-width:44;stroke-linecap:square;stroke-miterlimit:10;stroke-dasharray:none;stroke-opacity:1"
     d="M 165.05637,174.84785 C 148.76853,344.60675 124.7482,522.58302 162.25881,692.39749 249.91586,680.76695 337.57292,763.1435 425.22997,816.88916 410.89029,734.44753 377.82079,656.89218 341.30301,581.89365 474.18738,658.51856 607.07174,720.1933 739.95611,853.25751 812.21823,709.76363 854.3648,575.52625 871.44169,426.62876 L 724.5695,531.53747 816.88916,139.87828 C 642.59578,80.763923 471.33848,73.262923 300.7383,76.933055 L 660.22549,202.82351 286.75048,225.20403 254.57847,490.97277 C 232.56749,377.76807 197.74119,277.3787 165.05637,174.84785 Z"
     id="path18"
     sodipodi:nodetypes="ccccccccccccc"
     clip-path="url(#clipPath21)"
     transform="translate(-2.7975205,20.981737)"
     inkscape:original-d="M 165.05637,174.84785 C 148.76853,344.60675 124.7482,522.58302 162.25881,692.39749 249.91586,680.76695 337.57292,763.1435 425.22997,816.88916 410.89029,734.44753 377.82079,656.89218 341.30301,581.89365 474.18738,658.51856 607.07174,720.1933 739.95611,853.25751 812.21823,709.76363 854.3648,575.52625 871.44169,426.62876 L 724.5695,531.53747 816.88916,139.87828 C 642.59578,80.763923 471.33848,73.262923 300.7383,76.933055 L 660.22549,202.82351 286.75048,225.20403 254.57847,490.97277 C 232.56749,377.76807 197.74119,277.3787 165.05637,174.84785 Z"
     inkscape:path-effect="#path-effect22" />
  <g
     inkscape:label="Layer 1"
     inkscape:groupmode="layer"
     id="layer1" />
</svg>
